<svg xmlns="http://www.w3.org/2000/svg" fill="#90caf9" viewBox="0 0 24 24">
  <path d="M12 .5C5.65.5.5 5.65.5 12c0 5.1 3.3 9.4 7.9 10.9.6.1.8-.2.8-.6v-2c-3.2.7-3.8-1.5-3.8-1.5-.5-1.1-1.2-1.4-1.2-1.4-1-.7.1-.7.1-.7 1.1.1 1.6 1.1 1.6 1.1 1 .1.6 1.8 2.8 1.3.1-.8.4-1.3.7-1.6-2.6-.3-5.3-1.3-5.3-5.9 0-1.3.5-2.4 1.2-3.2-.1-.3-.5-1.6.1-3.2 0 0 1-.3 3.4 1.2 1-.3 2-.5 3.1-.5s2.1.2 3.1.5c2.3-1.5 3.3-1.2 3.3-1.2.6 1.6.2 2.9.1 3.2.7.8 1.2 1.9 1.2 3.2 0 4.6-2.7 5.6-5.3 5.9.4.4.7 1 .7 2v3c0 .3.2.7.8.6C20.7 21.4 24 17.1 24 12c0-6.35-5.15-11.5-12-11.5z"></path>
</svg>
