<svg xmlns="http://www.w3.org/2000/svg" fill="#90caf9" viewBox="0 0 24 24">
  <path d="M12 2.2c3.2 0 3.6 0 4.9.1 1.2.1 1.9.2 2.4.4.6.2 1 .4 1.5.9.5.5.7.9.9 1.5.2.5.3 1.2.4 2.4.1 1.3.1 1.7.1 4.9s0 3.6-.1 4.9c-.1 1.2-.2 1.9-.4 2.4-.2.6-.4 1-.9 1.5-.5.5-.9.7-1.5.9-.5.2-1.2.3-2.4.4-1.3.1-1.7.1-4.9.1s-3.6 0-4.9-.1c-1.2-.1-1.9-.2-2.4-.4-.6-.2-1-.4-1.5-.9-.5-.5-.7-.9-.9-1.5-.2-.5-.3-1.2-.4-2.4C2.2 15.6 2.2 15.2 2.2 12s0-3.6.1-4.9c.1-1.2.2-1.9.4-2.4.2-.6.4-1 .9-1.5.5-.5.9-.7 1.5-.9.5-.2 1.2-.3 2.4-.4C8.4 2.2 8.8 2.2 12 2.2m0-2.2C8.7 0 8.3 0 7 0.1 5.7 0.2 4.7 0.4 3.9.7c-.9.3-1.6.7-2.3 1.4C.9 2.8.5 3.5.2 4.4.0 5.2-.2 6.2-.1 7.5 0 8.8 0 9.2 0 12s0 3.2.1 4.5c.1 1.3.3 2.3.6 3.1.3.9.7 1.6 1.4 2.3.7.7 1.4 1.1 2.3 1.4.8.3 1.8.5 3.1.6 1.3.1 1.7.1 4.5.1s3.2 0 4.5-.1c1.3-.1 2.3-.3 3.1-.6.9-.3 1.6-.7 2.3-1.4.7-.7 1.1-1.4 1.4-2.3.3-.8.5-1.8.6-3.1.1-1.3.1-1.7.1-4.5s0-3.2-.1-4.5c-.1-1.3-.3-2.3-.6-3.1-.3-.9-.7-1.6-1.4-2.3-.7-.7-1.4-1.1-2.3-1.4-.8-.3-1.8-.5-3.1-.6C15.2 0 14.8 0 12 0z"></path>
  <path d="M12 5.8a6.2 6.2 0 1 0 0 12.4 6.2 6.2 0 0 0 0-12.4zm0 10.2a4 4 0 1 1 0-8 4 4 0 0 1 0 8z"></path>
  <circle cx="18.4" cy="5.6" r="1.4"></circle>
</svg>
